<svg xmlns="http://www.w3.org/2000/svg" width="86" height="80" viewBox="0 0 86 80" fill="none">
<path d="M43.0381 80.0001C66.3824 80.0001 85.3066 76.2243 85.3066 71.5667C85.3066 66.9091 66.3824 63.1333 43.0381 63.1333C19.6938 63.1333 0.769531 66.9091 0.769531 71.5667C0.769531 76.2243 19.6938 80.0001 43.0381 80.0001Z" fill="#242D36"/>
<path d="M47.5091 65.7751C63.2777 65.7751 76.0607 52.9921 76.0607 37.2235C76.0607 21.4549 63.2777 8.67188 47.5091 8.67188C31.7405 8.67188 18.9575 21.4549 18.9575 37.2235C18.9575 52.9921 31.7405 65.7751 47.5091 65.7751Z" fill="#889BAF"/>
<path d="M51.9793 49.2133C51.5729 49.2133 51.0649 49.1117 50.6584 48.9085C49.6424 48.4005 49.0327 47.3844 49.0327 46.2667L49.1343 30.0096C49.1343 28.8919 49.744 27.8759 50.76 27.3678C51.7761 26.8598 52.8938 26.9614 53.8082 27.6726L64.3754 35.8012C65.0866 36.3092 65.4931 37.2237 65.4931 38.1382C65.4931 39.0526 65.0866 39.8655 64.3754 40.4751L53.7066 48.7053C53.1986 49.0101 52.589 49.2133 51.9793 49.2133Z" fill="#242D36"/>
<path d="M13.7753 44.2342C13.6736 44.2342 13.064 41.186 12.9624 40.7796C12.7592 39.5603 12.7592 38.341 12.7592 37.1217C12.7592 31.2285 14.6897 25.6401 18.246 20.9662C18.3476 20.8646 18.3476 20.8646 18.4492 20.763C20.2781 18.426 22.4118 16.2922 25.0536 14.4633C25.5617 14.0569 25.6633 13.3456 25.3585 12.8376C24.952 12.3296 24.2408 12.228 23.7327 12.5328C21.091 14.3617 11.4383 22.3887 10.6254 37.1217C10.5238 38.5442 11.2351 43.5229 12.0479 45.3519C12.3528 45.4535 13.3688 44.8438 13.7753 44.2342Z" fill="white"/>
<path d="M57.9742 64.8605C57.771 64.2509 57.0598 63.9461 56.4501 64.1493C52.7923 65.4702 49.0328 66.0798 45.0701 66.1814C44.9685 66.1814 44.8669 66.1814 44.7653 66.1814C41.6155 66.1814 38.6689 65.775 35.7223 64.9621H35.6207C33.995 64.5557 32.3692 63.9461 30.8451 63.3364C29.9307 63.8445 28.813 64.2509 27.6953 64.3525C29.6258 65.267 31.9628 66.283 33.3853 66.6895C32.9789 67.5023 32.6741 68.3152 32.6741 69.2296C32.6741 70.5505 33.1821 71.8714 34.1982 72.7859C35.2142 73.8019 36.4335 74.2084 37.7544 74.2084C39.0753 74.2084 40.2946 73.7003 41.3107 72.7859L42.4283 71.6682C42.6316 72.0746 42.9364 72.4811 43.2412 72.7859C44.1557 73.7003 45.4765 74.31 46.7974 74.31C48.1183 74.31 49.4392 73.8019 50.3537 72.7859L55.1292 68.0103C55.5357 67.6039 55.8405 67.1975 56.0437 66.6895C56.4501 66.5878 56.8565 66.4862 57.1614 66.283C57.8726 66.0798 58.1774 65.4702 57.9742 64.8605ZM39.5833 71.1602C39.0753 71.6682 38.3641 71.973 37.6528 71.973C36.9416 71.973 36.2303 71.6682 35.7223 71.1602C35.2142 70.6521 34.9094 69.9409 34.9094 69.2296C34.9094 68.5184 35.2142 67.9087 35.6207 67.4007C37.7544 67.9087 39.9898 68.3152 42.3267 68.4168L39.5833 71.1602ZM48.728 71.1602C48.2199 71.6682 47.5087 71.973 46.7974 71.973C46.0862 71.973 45.3749 71.6682 44.8669 71.1602C44.4605 70.7537 44.2573 70.3473 44.1557 69.8393L45.5782 68.4168C47.8135 68.4168 50.0489 68.112 52.1826 67.7055L48.728 71.1602Z" fill="white"/>
<path d="M78.4991 43.1164C78.9055 41.1859 79.1088 39.1537 79.1088 37.2232C79.1088 28.8914 75.5525 20.9661 69.0497 15.0729C62.5468 9.17965 53.9102 5.92822 44.7656 5.92822C37.3482 5.92822 29.0165 9.38286 28.5084 9.68769C27.8988 9.99251 27.6956 10.7038 28.0004 11.2118C28.3052 11.8214 29.0165 12.0246 29.5245 11.7198C34.1984 9.48447 39.482 8.26519 44.7656 8.26519C62.4452 8.26519 76.7718 21.2709 76.7718 37.2232C76.7718 42.202 75.3493 47.1807 72.6059 51.5498C69.9641 55.8173 66.103 59.3735 61.5307 61.9137C61.0227 62.2185 60.8195 62.9298 61.1243 63.4378C61.3275 63.8443 61.734 64.0475 62.1404 64.0475C62.3436 64.0475 62.5468 64.0475 62.75 63.9459C63.0548 63.7426 63.4613 63.5394 63.7661 63.3362H71.4882C77.6863 63.3362 82.7666 58.2559 82.7666 52.0578C82.665 48.5016 81.1409 45.2502 78.4991 43.1164ZM71.3866 60.9993H67.0175C69.9641 58.6623 72.6059 55.9189 74.5364 52.7691C75.9589 50.5337 77.0766 48.1968 77.7879 45.6566C79.4136 47.2823 80.328 49.6193 80.328 51.9562C80.4296 56.935 76.3654 60.9993 71.3866 60.9993Z" fill="white"/>
<path d="M60.5146 27.7739C60.5146 29.9077 62.242 31.5334 64.2741 31.5334C66.4079 31.5334 68.0336 29.8061 68.0336 27.7739C68.0336 27.1643 67.5255 26.6562 66.9159 26.6562C66.3063 26.6562 65.7982 27.1643 65.7982 27.7739C65.7982 28.5868 65.087 29.298 64.2741 29.298C63.4613 29.298 62.75 28.5868 62.75 27.7739C62.75 27.1643 62.242 26.6562 61.6323 26.6562C61.0227 26.6562 60.5146 27.1643 60.5146 27.7739Z" fill="white"/>
<path d="M23.5295 10.196L22.6151 7.7574C21.8022 5.62365 22.9199 3.18508 25.0536 2.37222C27.1874 1.66097 29.5244 2.67704 30.2356 4.81079L31.6581 8.67186C31.6581 8.77347 31.7597 8.87508 31.7597 9.07829C32.471 8.87508 33.0806 8.67186 33.7919 8.36704C33.7919 8.26543 33.6902 8.06222 33.6902 7.96061L32.2678 4.20115C31.0485 0.949725 27.5938 -0.777596 24.3424 0.340081C20.9894 1.45776 19.262 5.11561 20.4813 8.46865L21.3958 10.9072C21.599 11.4153 22.107 11.7201 22.6151 11.6185C23.4279 11.5169 23.7328 10.8056 23.5295 10.196Z" fill="white"/>
<path d="M22.9198 9.68782L20.5828 8.57015C17.433 7.04604 13.5719 8.36693 12.1494 11.6184C10.7269 14.7682 12.1494 18.426 15.1976 19.8485L17.1282 20.763C17.5346 20.1534 17.8394 19.5437 18.3475 18.9341L16.1121 17.8164C14.08 16.8003 13.2671 14.4634 14.1816 12.4312C15.096 10.3991 17.7378 9.48461 19.77 10.5007L22.1069 11.6184C22.7166 11.9232 23.4278 11.6184 23.631 11.0087C23.631 10.3991 23.4278 9.89104 22.9198 9.68782Z" fill="white"/>
<path d="M17.8398 42.7103C13.5723 41.7958 9.00002 43.4215 6.25662 47.181C2.59877 52.2613 3.81806 59.3738 8.89841 62.9301L16.9254 68.7217C17.3318 69.0265 18.9575 69.941 20.6848 69.8394C22.5138 69.7378 24.2411 68.9249 25.3588 67.2992C25.7652 66.6895 26.07 65.9783 26.2732 65.267C29.1182 65.8767 32.268 64.759 33.9954 62.3204C36.4339 58.9674 35.6211 54.2935 32.268 51.8549L22.0057 44.5392C21.7009 44.2344 19.7704 43.2183 17.8398 42.7103ZM32.1664 60.8979C30.7439 62.8285 28.2038 63.6413 25.9684 62.6252L21.2945 59.2722C20.7864 58.8658 20.0752 59.069 19.6688 59.577C19.2623 60.0851 19.4655 60.7963 19.9736 61.2028L24.2411 64.251C24.1395 64.8606 23.9363 65.3686 23.6314 65.8767C22.4122 67.604 20.0752 67.9088 18.4495 66.7911L10.6257 61.2028C10.5241 61.1012 10.4225 60.9995 10.2193 60.8979C6.35823 57.9513 5.44377 52.4645 8.28877 48.5019C11.1338 44.4376 16.8238 43.5231 20.888 46.3681L31.1504 53.6838C33.2841 55.4112 33.8937 58.6626 32.1664 60.8979Z" fill="white"/>
<path d="M31.6582 21.373C31.2518 21.6778 31.2518 22.2875 31.5566 22.6939C31.8615 23.1003 32.4711 23.1003 32.8775 22.7955C36.0273 20.1537 40.4981 19.7473 44.0543 21.7794C44.4607 21.9826 44.9688 21.881 45.2736 21.4746C45.2736 21.4746 45.2736 21.4746 45.2736 21.373C45.4768 20.9666 45.3752 20.3569 44.9688 20.1537C40.7013 17.8167 35.4177 18.2232 31.6582 21.373Z" fill="white"/>
<path d="M29.0161 24.6242C28.5081 25.6402 28.1016 26.6563 27.7968 27.6724C27.6952 28.1804 28 28.6884 28.5081 28.7901C29.0161 28.8917 29.5241 28.5868 29.6257 28.0788C29.829 27.1643 30.1338 26.2499 30.6418 25.437C31.1498 24.4209 29.6257 23.6081 29.0161 24.6242Z" fill="white"/>
<path d="M54.2151 26.3514C53.4023 22.5919 51.1669 19.2389 48.0171 17.0035C44.8673 14.7682 41.0062 13.8537 37.1451 14.3618C33.2841 14.8698 29.8294 16.8003 27.3909 19.7469C24.7491 22.7951 23.5298 26.5546 23.733 30.4157C23.9362 34.1751 25.4603 37.7314 28.1021 40.4748L25.4603 44.3358C24.4443 44.3358 23.4282 44.7423 22.8185 45.6567L22.4121 46.1648L22.6153 46.368C22.9201 46.6728 23.225 46.9776 23.5298 47.3841L23.8346 47.5873L24.4443 46.7744C24.6475 46.5712 24.8507 46.368 25.1555 46.368C25.4603 46.368 25.7651 46.368 25.9684 46.5712L28.0005 47.9937C28.2037 48.1969 28.4069 48.4001 28.4069 48.705C28.4069 49.0098 28.4069 49.3146 28.2037 49.5178L27.3909 50.6355L27.5941 50.8387C27.8989 51.1435 28.3053 51.3467 28.6101 51.6516L28.915 51.8548L29.7278 50.7371C30.3375 49.9242 30.4391 48.8066 30.0326 47.8921L32.6744 44.031C36.1291 45.5551 39.9901 45.7583 43.648 44.6407C47.3058 43.523 50.4557 40.9828 52.3862 37.6298C54.4183 34.0735 55.028 30.1109 54.2151 26.3514ZM29.5246 41.7957C29.8294 41.9989 30.0326 42.2021 30.3375 42.4053C30.5407 42.6085 30.8455 42.7101 31.1503 42.9134L28.8134 46.1648L27.2892 45.0471L29.5246 41.7957ZM28.1021 21.9823C30.1342 19.0357 33.2841 17.0035 36.8403 16.3939C37.6532 16.2923 38.466 16.1907 39.2789 16.1907C42.0223 16.1907 44.6641 17.0035 47.001 18.6293C49.9476 20.6614 51.9798 23.8112 52.5894 27.3675C53.1991 30.9237 52.3862 34.48 50.3541 37.4266C48.3219 40.3732 45.1721 42.4053 41.6158 43.015C38.0596 43.6246 34.5034 42.8117 31.5567 40.7796C28.6101 38.7475 26.578 35.5976 25.9684 32.0414C25.2571 28.4851 25.9684 24.9289 28.1021 21.9823Z" fill="white"/>
<path d="M41.3108 32.2446C42.8259 32.2446 44.0542 31.0163 44.0542 29.5012C44.0542 27.9861 42.8259 26.7578 41.3108 26.7578C39.7956 26.7578 38.5674 27.9861 38.5674 29.5012C38.5674 31.0163 39.7956 32.2446 41.3108 32.2446Z" fill="white"/>
</svg>